<?xml version="1.0" encoding="UTF-8" standalone="no"?>
<!DOCTYPE svg PUBLIC "-//W3C//DTD SVG 1.1//EN" "http://www.w3.org/Graphics/SVG/1.1/DTD/svg11.dtd">
<svg width="100%" height="100%" viewBox="0 0 256 257" version="1.1" xmlns="http://www.w3.org/2000/svg" xmlns:xlink="http://www.w3.org/1999/xlink" xml:space="preserve" xmlns:serif="http://www.serif.com/" style="fill-rule:evenodd;clip-rule:evenodd;stroke-linejoin:round;stroke-miterlimit:2;">
    <g transform="matrix(1,0,0,1,-0.429837,-0.50407)">
        <path d="M41.29,100.3C30.78,61.89 32.21,27.25 51.01,13.71C77.21,-5.33 124.81,17.72 164.11,67.19C178.01,85.06 189,102.91 154.93,61.86C129.4,35.91 100.08,20.57 83.03,21.11C58.88,17.18 47.06,37.38 54.48,87.97C49.55,92.57 46.3,96.02 41.31,100.3L41.29,100.3Z" style="fill:rgb(191,103,71);fill-rule:nonzero;"/>
    </g>
    <g transform="matrix(1,0,0,1,-0.429837,-0.50407)">
        <path d="M154.2,42.08C187.63,33.16 218.74,33.68 235.98,46.67C257.39,62.99 252.3,88.04 235.64,115.61C215.43,150.43 170.67,186.07 132.04,202.88C126.89,198.73 125.16,197.07 119.51,192.01C161.4,174.79 200.92,141.72 219.91,109.62C233.83,84.99 238.68,67.11 224.89,58.05C211.68,48.25 188.25,50.19 167.73,54.74C163.65,50.46 159.88,46.53 154.14,42.08L154.2,42.08Z" style="fill:rgb(191,103,71);fill-rule:nonzero;"/>
    </g>
    <g transform="matrix(1,0,0,1,-0.429837,-0.50407)">
        <path d="M213.9,155.3C225.08,192.76 221.11,229.14 199.7,244.1C173.78,262.37 130.04,243.12 92,198.06C77.07,179.34 66.01,162 53.39,133.83C57.46,128.5 59.07,126.55 64.06,120.95C75.13,149.45 98.13,184.97 124.57,208.59C147.44,228.97 169.08,236.1 183.27,234.51C201.04,232.34 206.94,209.08 200.96,169.3C205.36,164.9 208.73,161.05 213.89,155.3L213.9,155.3Z" style="fill:rgb(191,103,71);fill-rule:nonzero;"/>
    </g>
    <g transform="matrix(1,0,0,1,-0.429837,-0.50407)">
        <path d="M65.06,91.16C84.07,74.77 99.07,64.71 121.71,53.21C127.11,57.91 127.99,59.33 133.81,64.73C107.21,76.07 89.51,86.85 71.51,103.04C50.17,121.86 30.85,148.15 23.16,170.12C15.68,191.47 26.74,202.46 54.91,204.56C66.73,205.34 77.91,203.75 87.36,201.65C92.05,207.05 94.29,209.86 99.15,214.45C81.91,218.91 60.27,221.08 42.5,218.35C16.41,213.76 4.45,198.93 7.05,177.24C9.71,156.63 28.12,123.22 65.06,91.16Z" style="fill:rgb(191,103,71);fill-rule:nonzero;"/>
    </g>
    <g transform="matrix(1,0,0,1,-0.429837,-0.50407)">
        <path d="M127.4,94.26C107.33,94.26 94.21,110.91 94.21,128.06C94.21,146.09 108.81,161.75 127.33,161.75C146.92,161.75 161.45,145.43 161.45,128.28C161.45,110.61 147.73,94.26 127.4,94.26Z" style="fill:rgb(191,103,71);fill-rule:nonzero;"/>
    </g>
</svg>
